# xmcd CD database file
#
# Track frame offsets:
#	150
#	15636
#	29038
#	41728
#	53087
#	63125
#	80080
#	90824
#	107301
#	122559
#	136477
#	147380
#	161704
#	171906
#	183218
#	193565
#
# Disc length: 2676 seconds
#
# Revision: 0
# Processed by: cddbd v1.5.2PL0 Copyright (c) Steve Scherf et al.
# Submitted via: CDex 1.70beta2
#
DISCID=d10a7210
DTITLE=Křupani - 15 písní pro Kovboje a farmáře
DYEAR=1900
DGENRE=Country
TTITLE0=Wabash cannonball
TTITLE1=Oh nechte mě jet
TTITLE2=Starej Clarke má dceru
TTITLE3=Letmý pozdrav
TTITLE4=Krtek
TTITLE5=Proč zůstal jsem nekonečně sám
TTITLE6=Blátivá
TTITLE7=Děvče od Červené řeky
TTITLE8=Sladký domov
TTITLE9=Pelech v koutě
TTITLE10=Každou noc se do Tvýc očí dívám
TTITLE11=San Antonio roses
TTITLE12=Svět čeká na východ od slunce
TTITLE13=Ano pane, toto je moje děvče
TTITLE14=Týden s Tebou
TTITLE15=Malý džbánek hliněný
EXTD=
EXTT0=
EXTT1=
EXTT2=
EXTT3=
EXTT4=
EXTT5=
EXTT6=
EXTT7=
EXTT8=
EXTT9=
EXTT10=
EXTT11=
EXTT12=
EXTT13=
EXTT14=
EXTT15=
PLAYORDER=
